# This file uses meters as units for non-parametric coordinates.

mtllib entrada.mtl
g default
v 113.360847 1.700177 87.647039
v 111.577836 0.784040 -82.073572
v 113.237103 117.535218 87.023071
v 111.454093 116.619081 -82.697540
v 108.362729 117.530287 87.074306
v 106.579718 116.614149 -82.646305
v 108.486472 1.695246 87.698274
v 106.703461 0.779108 -82.022337
vt 0.375000 0.000000
vt 0.625000 0.000000
vt 0.375000 0.250000
vt 0.625000 0.250000
vt 0.375000 0.500000
vt 0.625000 0.500000
vt 0.375000 0.750000
vt 0.625000 0.750000
vt 0.375000 1.000000
vt 0.625000 1.000000
vt 0.875000 0.000000
vt 0.875000 0.250000
vt 0.125000 0.000000
vt 0.125000 0.250000
vn 0.999944 0.001012 -0.010510
vn 0.999944 0.001012 -0.010510
vn 0.999944 0.001012 -0.010510
vn 0.999944 0.001012 -0.010510
vn -0.001068 0.999985 -0.005387
vn -0.001068 0.999985 -0.005387
vn -0.001068 0.999985 -0.005387
vn -0.001068 0.999985 -0.005387
vn -0.999944 -0.001012 0.010510
vn -0.999944 -0.001012 0.010510
vn -0.999944 -0.001012 0.010510
vn -0.999944 -0.001012 0.010510
vn 0.001068 -0.999985 0.005387
vn 0.001068 -0.999985 0.005387
vn 0.001068 -0.999985 0.005387
vn 0.001068 -0.999985 0.005387
vn -0.010505 -0.005398 -0.999930
vn -0.010505 -0.005398 -0.999930
vn -0.010505 -0.005398 -0.999930
vn -0.010505 -0.005398 -0.999930
vn 0.010505 0.005398 0.999930
vn 0.010505 0.005398 0.999930
vn 0.010505 0.005398 0.999930
vn 0.010505 0.005398 0.999930
s off
g pasted__pasted__pasted__pCube1 pasted__pasted__group pasted__group3 group11
usemtl initialShadingGroup
f 1/1/1 2/2/2 4/4/3 3/3/4
f 3/3/5 4/4/6 6/6/7 5/5/8
f 5/5/9 6/6/10 8/8/11 7/7/12
f 7/7/13 8/8/14 2/10/15 1/9/16
f 2/2/17 8/11/18 6/12/19 4/4/20
f 7/13/21 1/1/22 3/3/23 5/14/24
