# This file uses meters as units for non-parametric coordinates.

mtllib paredDer.mtl
g paredDer:default1
v -917.880188 -1086.734741 -293.858551
v 758.104065 -1103.682617 -282.032196
v -911.830505 -1084.141479 -1147.480347
v 764.153748 -1101.089355 -1135.654053
v -912.192932 -1120.062744 -1147.592041
v 763.791321 -1137.010498 -1135.765747
v -918.242615 -1122.656006 -293.970245
v 757.741638 -1139.603760 -282.143890
vt 0.375000 0.000000
vt 0.625000 0.000000
vt 0.375000 0.250000
vt 0.625000 0.250000
vt 0.375000 0.500000
vt 0.625000 0.500000
vt 0.375000 0.750000
vt 0.625000 0.750000
vt 0.375000 1.000000
vt 0.625000 1.000000
vt 0.875000 0.000000
vt 0.875000 0.250000
vt 0.125000 0.000000
vt 0.125000 0.250000
vn 0.010090 0.999944 0.003109
vn 0.010090 0.999944 0.003109
vn 0.010090 0.999944 0.003109
vn 0.010090 0.999944 0.003109
vn 0.007087 0.003038 -0.999970
vn 0.007087 0.003038 -0.999970
vn 0.007087 0.003038 -0.999970
vn 0.007087 0.003038 -0.999970
vn -0.010090 -0.999944 -0.003109
vn -0.010090 -0.999944 -0.003109
vn -0.010090 -0.999944 -0.003109
vn -0.010090 -0.999944 -0.003109
vn -0.007087 -0.003038 0.999970
vn -0.007087 -0.003038 0.999970
vn -0.007087 -0.003038 0.999970
vn -0.007087 -0.003038 0.999970
vn 0.999924 -0.010111 0.007056
vn 0.999924 -0.010111 0.007056
vn 0.999924 -0.010111 0.007056
vn 0.999924 -0.010111 0.007056
vn -0.999924 0.010111 -0.007056
vn -0.999924 0.010111 -0.007056
vn -0.999924 0.010111 -0.007056
vn -0.999924 0.010111 -0.007056
s off
g paredDer:group paredDer:pasted__pCube1 paredDer:polySurface1
usemtl lambert2SG
f 1/1/1 2/2/2 4/4/3 3/3/4
f 3/3/5 4/4/6 6/6/7 5/5/8
f 5/5/9 6/6/10 8/8/11 7/7/12
f 7/7/13 8/8/14 2/10/15 1/9/16
f 2/2/17 8/11/18 6/12/19 4/4/20
f 7/13/21 1/1/22 3/3/23 5/14/24
