# This file uses meters as units for non-parametric coordinates.

mtllib paredIzq.mtl
g paredIzq:default1
v -897.700378 -1129.380493 914.955017
v 778.411255 -1129.380493 914.955017
v -897.700378 -1103.003418 1768.194580
v 778.411255 -1103.003418 1768.194580
v -897.700378 -1067.097412 1767.084595
v 778.411255 -1067.097412 1767.084595
v -897.700378 -1093.474487 913.845032
v 778.411255 -1093.474487 913.845032
vt 0.375000 0.000000
vt 0.625000 0.000000
vt 0.375000 0.250000
vt 0.625000 0.250000
vt 0.375000 0.500000
vt 0.625000 0.500000
vt 0.375000 0.750000
vt 0.625000 0.750000
vt 0.375000 1.000000
vt 0.625000 1.000000
vt 0.875000 0.000000
vt 0.875000 0.250000
vt 0.125000 0.000000
vt 0.125000 0.250000
vn 0.000000 -0.999523 0.030899
vn 0.000000 -0.999523 0.030899
vn 0.000000 -0.999523 0.030899
vn 0.000000 -0.999523 0.030899
vn 0.000000 0.030899 0.999523
vn 0.000000 0.030899 0.999523
vn 0.000000 0.030899 0.999523
vn 0.000000 0.030899 0.999523
vn 0.000000 0.999523 -0.030899
vn 0.000000 0.999523 -0.030899
vn 0.000000 0.999523 -0.030899
vn 0.000000 0.999523 -0.030899
vn 0.000000 -0.030899 -0.999523
vn 0.000000 -0.030899 -0.999523
vn 0.000000 -0.030899 -0.999523
vn 0.000000 -0.030899 -0.999523
vn 1.000000 0.000000 0.000000
vn 1.000000 0.000000 0.000000
vn 1.000000 0.000000 0.000000
vn 1.000000 0.000000 0.000000
vn -1.000000 0.000000 0.000000
vn -1.000000 0.000000 0.000000
vn -1.000000 0.000000 0.000000
vn -1.000000 0.000000 0.000000
s off
g paredIzq:group2 paredIzq:pasted__group paredIzq:pasted__pasted__pCube1 paredIzq:polySurface1
usemtl lambert2SG
f 1/1/1 2/2/2 4/4/3 3/3/4
f 3/3/5 4/4/6 6/6/7 5/5/8
f 5/5/9 6/6/10 8/8/11 7/7/12
f 7/7/13 8/8/14 2/10/15 1/9/16
f 2/2/17 8/11/18 6/12/19 4/4/20
f 7/13/21 1/1/22 3/3/23 5/14/24
