# This file uses meters as units for non-parametric coordinates.

mtllib pruebadetecho.mtl
g default1
v -1038.861328 -1070.828857 1363.311768
v 919.572144 -1070.828857 1363.311768
v -1038.861328 -1058.458496 -35.393559
v 919.572144 -1058.458496 -35.393559
v -1038.861328 -1104.947510 -21.543751
v 919.572144 -1104.947510 -21.543751
v -1038.861328 -1117.317749 1377.161621
v 919.572144 -1117.317749 1377.161621
vt 0.375000 0.000000
vt 0.625000 0.000000
vt 0.375000 0.250000
vt 0.625000 0.250000
vt 0.375000 0.500000
vt 0.625000 0.500000
vt 0.375000 0.750000
vt 0.625000 0.750000
vt 0.375000 1.000000
vt 0.625000 1.000000
vt 0.875000 0.000000
vt 0.875000 0.250000
vt 0.125000 0.000000
vt 0.125000 0.250000
vn 0.000000 0.999961 0.008844
vn 0.000000 0.999961 0.008844
vn 0.000000 0.999961 0.008844
vn 0.000000 0.999961 0.008844
vn 0.000000 -0.285515 -0.958374
vn 0.000000 -0.285515 -0.958374
vn 0.000000 -0.285515 -0.958374
vn 0.000000 -0.285515 -0.958374
vn 0.000000 -0.999961 -0.008844
vn 0.000000 -0.999961 -0.008844
vn 0.000000 -0.999961 -0.008844
vn 0.000000 -0.999961 -0.008844
vn 0.000000 0.285515 0.958374
vn 0.000000 0.285515 0.958374
vn 0.000000 0.285515 0.958374
vn 0.000000 0.285515 0.958374
vn 1.000000 0.000000 0.000000
vn 1.000000 0.000000 0.000000
vn 1.000000 0.000000 0.000000
vn 1.000000 0.000000 0.000000
vn -1.000000 0.000000 0.000000
vn -1.000000 0.000000 0.000000
vn -1.000000 0.000000 0.000000
vn -1.000000 0.000000 0.000000
s off
g group7 pasted__group2 pasted__pasted__group pasted__pasted__pasted__pCube1 polySurface2 polySurface1
usemtl lambert5SG
f 1/1/1 2/2/2 4/4/3 3/3/4
f 3/3/5 4/4/6 6/6/7 5/5/8
f 5/5/9 6/6/10 8/8/11 7/7/12
f 7/7/13 8/8/14 2/10/15 1/9/16
f 2/2/17 8/11/18 6/12/19 4/4/20
f 7/13/21 1/1/22 3/3/23 5/14/24
